# xmcd
#
# Track frame offsets:
#	150
#	15456
#	27655
#	40176
#	58213
#	70995
#	85052
#	99674
#	111771
#	125976
#	140362
#	154905
#	170060
#	190477
#	206977
#
# Disc length: 2937 seconds
#
# Revision: 1
# Processed by: cddbd v1.5.2PL0 Copyright (c) Steve Scherf et al.
# Submitted via: audiograbber 1.83.01
#
DISCID=e40b770f
DTITLE=DUSTY DIXON - PURE COUNTRY
DYEAR=1900
DGENRE=Country
TTITLE0=BILLY COME BACK HOME
TTITLE1=WHEN DID YOU STOP LOVING ME
TTITLE2=HELP ME MAKE IT THROUGH THE NIGHT
TTITLE3=RIVER OF TEARS
TTITLE4=FIRE I CAN'T PUT OUT
TTITLE5=CHERYL MOANE MARIE
TTITLE6=THANK GOD FOR THE RADIO
TTITLE7=THE STREETS OF BALTIMORE
TTITLE8=LET'S GET BACK
TTITLE9=IS THE MAGIC STILL THERE
TTITLE10=SEND A MESSAGE TO MY HEART
TTITLE11=THE COWBOY RIDES AWAY
TTITLE12=KEEPING ME STRONG
TTITLE13=JUST ONE MORE DANCE
TTITLE14=THERE'S A HONKY TONK ANGEL
EXTD=
EXTT0=
EXTT1=
EXTT2=
EXTT3=
EXTT4=
EXTT5=
EXTT6=
EXTT7=
EXTT8=
EXTT9=
EXTT10=
EXTT11=
EXTT12=
EXTT13=
EXTT14=
PLAYORDER=
